<?xml version="1.0" encoding="utf-8"?>
<!-- Generator: Adobe Illustrator 25.2.1, SVG Export Plug-In . SVG Version: 6.00 Build 0)  -->
<svg version="1.1" id="Layer_1" xmlns="http://www.w3.org/2000/svg" xmlns:xlink="http://www.w3.org/1999/xlink" x="0px" y="0px"
	 viewBox="0 0 259.6 75" style="enable-background:new 0 0 259.6 75;" xml:space="preserve">
<style type="text/css">
	.st0{fill:#DC2228;}
</style>
<g>
	<g>
		<path class="st0" d="M0,26.5h10.3v5.9c1.1-2.3,2.5-4.1,4.3-5.3c1.8-1.2,3.8-1.8,5.9-1.8c1.5,0,3.1,0.4,4.8,1.2l-3.7,10.2
			c-1.4-0.7-2.5-1-3.4-1c-1.8,0-3.3,1.1-4.6,3.4c-1.2,2.3-1.9,6.7-1.9,13.3l0,2.3v19.1H0V26.5z"/>
		<path class="st0" d="M69.6,53.5H31.5c0.5,3.4,2,6.1,4.4,8.1c2.4,2,5.4,3,9.1,3c4.4,0,8.2-1.6,11.4-4.7l10,4.7
			c-2.5,3.6-5.5,6.2-8.9,7.9C54,74.2,49.9,75,45.1,75c-7.4,0-13.4-2.3-18.1-7c-4.7-4.7-7-10.5-7-17.6c0-7.2,2.3-13.2,7-18
			c4.7-4.8,10.5-7.1,17.5-7.1c7.4,0,13.5,2.4,18.2,7.1c4.7,4.7,7,11,7,18.8L69.6,53.5z M57.8,44.3c-0.8-2.6-2.3-4.7-4.6-6.4
			c-2.3-1.6-5-2.5-8-2.5c-3.3,0-6.2,0.9-8.7,2.8c-1.6,1.1-3,3.2-4.4,6.1H57.8z"/>
		<path class="st0" d="M70.3,8.3h11.9V46l17.4-19.5h14.8L94.2,49.2L117,73.8h-14.7L82.2,52v21.8H70.3V8.3z"/>
		<path class="st0" d="M112.9,26.5h12v22.8c0,4.4,0.3,7.5,0.9,9.2c0.6,1.7,1.6,3.1,2.9,4c1.3,1,3,1.4,5,1.4c2,0,3.6-0.5,5-1.4
			c1.4-0.9,2.4-2.3,3.1-4.1c0.5-1.4,0.7-4.3,0.7-8.7V26.5h11.9v20c0,8.3-0.7,13.9-2,16.9c-1.6,3.7-3.9,6.5-7,8.5c-3.1,2-7,3-11.8,3
			c-5.2,0-9.4-1.2-12.6-3.5c-3.2-2.3-5.4-5.5-6.7-9.7c-0.9-2.9-1.4-8.1-1.4-15.6V26.5z"/>
		<path class="st0" d="M204.7,53.5h-38.1c0.5,3.4,2,6.1,4.4,8.1c2.4,2,5.4,3,9.1,3c4.4,0,8.2-1.6,11.4-4.7l10,4.7
			c-2.5,3.6-5.5,6.2-8.9,7.9c-3.5,1.7-7.6,2.6-12.4,2.6c-7.4,0-13.4-2.3-18.1-7c-4.7-4.7-7-10.5-7-17.6c0-7.2,2.3-13.2,7-18
			c4.6-4.8,10.5-7.1,17.5-7.1c7.4,0,13.5,2.4,18.2,7.1c4.7,4.7,7,11,7,18.8L204.7,53.5z M192.9,44.3c-0.8-2.6-2.3-4.7-4.6-6.4
			c-2.3-1.6-5-2.5-8-2.5c-3.3,0-6.2,0.9-8.7,2.8c-1.6,1.1-3,3.2-4.4,6.1H192.9z"/>
		<path class="st0" d="M234.3,33.1l-7.4,7.3c-3-2.9-5.7-4.4-8.2-4.4c-1.3,0-2.4,0.3-3.1,0.8c-0.8,0.6-1.1,1.3-1.1,2.1
			c0,0.6,0.2,1.2,0.7,1.8c0.5,0.5,1.7,1.3,3.6,2.2l4.4,2.2c4.6,2.3,7.8,4.6,9.5,6.9c1.7,2.3,2.6,5.1,2.6,8.3c0,4.2-1.5,7.7-4.6,10.5
			c-3.1,2.8-7.2,4.2-12.4,4.2c-6.9,0-12.4-2.7-16.5-8.1l7.3-7.9c1.4,1.6,3,2.9,4.9,3.9c1.9,1,3.5,1.5,5,1.5c1.6,0,2.8-0.4,3.8-1.1
			c1-0.8,1.4-1.6,1.4-2.6c0-1.8-1.7-3.6-5.2-5.3l-4-2c-7.7-3.9-11.5-8.7-11.5-14.5c0-3.7,1.5-6.9,4.3-9.6c2.9-2.6,6.6-4,11.1-4
			c3.1,0,6,0.7,8.7,2C230.2,28.7,232.5,30.6,234.3,33.1z"/>
		<path class="st0" d="M240.7,9.2h11.9v17.4h7v10.2h-7v37h-11.9v-37h-6.1V26.5h6.1V9.2z"/>
	</g>
	<g>
		<path class="st0" d="M168.2,4.8c3.2-3.2,7.1-4.8,11.6-4.8c4.5,0,8.4,1.6,11.6,4.8L203,16.4l-5.8,5.8l-11.5-11.5
			c-1.6-1.6-3.6-2.4-5.9-2.4c-2.3,0-4.2,0.8-5.8,2.4l-11.6,11.6l-5.8-5.8L168.2,4.8z"/>
	</g>
</g>
</svg>
